<svg width="14" height="9" viewBox="0 0 14 9" fill="none" xmlns="http://www.w3.org/2000/svg">
<path fill-rule="evenodd" clip-rule="evenodd" d="M13.435 7.77822C13.8255 7.38769 13.8255 6.75453 13.435 6.364L7.78606 0.715065C7.78346 0.712406 7.78084 0.709758 7.7782 0.707122C7.4853 0.414212 7.05589 0.341001 6.69474 0.48748C6.63994 0.509702 6.58671 0.536983 6.53577 0.569321C6.47481 0.60802 6.41712 0.653964 6.36393 0.70715C6.36239 0.708694 6.36085 0.710242 6.35932 0.711794L0.707136 6.36398C0.316613 6.7545 0.316613 7.38766 0.707136 7.77819C1.09766 8.16871 1.73083 8.16871 2.12135 7.77819L7.07105 2.82849L12.0208 7.77822C12.4113 8.16874 13.0445 8.16874 13.435 7.77822Z" fill="#00B3EB"/>
</svg>
