<svg width="9" height="14" viewBox="0 0 9 14" fill="none" xmlns="http://www.w3.org/2000/svg">
<path fill-rule="evenodd" clip-rule="evenodd" d="M7.70811 13.2929C7.31706 13.6834 6.68303 13.6834 6.29197 13.2928L0.635343 7.6439C0.632683 7.6413 0.630033 7.63869 0.627393 7.63605C0.321865 7.33094 0.255048 6.87772 0.426932 6.50782C0.453569 6.45048 0.48594 6.39515 0.524045 6.34268C0.554775 6.30037 0.589235 6.25992 0.627424 6.22178C0.628822 6.22039 0.630224 6.21899 0.631628 6.21761L6.29194 0.564983C6.683 0.174459 7.31703 0.174459 7.70808 0.564983C8.09914 0.955507 8.09914 1.58867 7.70808 1.9792L2.75164 6.9289L7.70811 11.8786C8.09917 12.2692 8.09917 12.9023 7.70811 13.2929Z" fill="white"/>
</svg>
