<svg width="8" height="14" viewBox="0 0 8 14" fill="none" xmlns="http://www.w3.org/2000/svg">
<path fill-rule="evenodd" clip-rule="evenodd" d="M0.380749 13.2928C0.771805 13.6834 1.40583 13.6834 1.79689 13.2928L7.45299 7.64443C7.45583 7.64165 7.45866 7.63886 7.46148 7.63604C7.80367 7.29432 7.84642 6.76681 7.58975 6.37865C7.55725 6.3295 7.51996 6.28258 7.47786 6.23856C7.47246 6.23291 7.46699 6.22732 7.46144 6.22178C7.46045 6.22079 7.45946 6.2198 7.45847 6.21882L1.79693 0.564977C1.40587 0.174453 0.771847 0.174453 0.380792 0.564977C-0.0102636 0.955501 -0.0102636 1.58867 0.380792 1.97919L5.33722 6.92889L0.380749 11.8786C-0.0103065 12.2692 -0.0103067 12.9023 0.380749 13.2928Z" fill="white"/>
</svg>
